<?xml version="1.0" standalone="no"?>
<!DOCTYPE svg PUBLIC "-//W3C//DTD SVG 1.1//EN" "http://www.w3.org/Graphics/SVG/1.1/DTD/svg11.dtd" >
<svg xmlns="http://www.w3.org/2000/svg">
<metadata>
This is a custom SVG webfont generated by Font Squirrel.
</metadata>
<defs>
<font id="IconicStrokeRegular" horiz-adv-x="2048" >
<font-face units-per-em="2048" ascent="1638" descent="-410" />
<missing-glyph horiz-adv-x="500" />
<glyph unicode="0" d="M2 1050l354 -354l394 394v-1040h500v1040l394 -396l354 356l-998 996z" />
<glyph unicode="1" d="M2 1046l354 354l394 -394v1040h500v-1040l394 396l354 -356l-998 -996z" />
<glyph unicode="2" d="M-2 1048l1000 -1002l356 356l-396 394h1044v502h-1044l396 396l-356 356z" />
<glyph unicode="3" d="M-2 796v502h1044l-396 396l356 356l1000 -1002l-1000 -1002l-356 356l396 394h-1044z" />
<glyph unicode="4" d="M0 990l746 -748l1254 1256l-356 356l-898 -898l-390 390z" />
<glyph unicode="5" d="M0 448l400 -400l600 600l600 -600l400 400l-600 600l600 600l-400 400l-600 -600l-600 600l-400 -400l600 -600z" />
<glyph unicode="6" d="M2 300q0 -102 73 -175t177 -73h1494v1242h250l-250 250l252 250h-252v250h-1494q-104 0 -177 -73t-73 -175v-1496zM500 300v1496h998v-1496h-998zM750 1296h498v250h-498v-250z" />
<glyph unicode="7" d="M2 50h1996v1748h-248v-1500h-1500v1500h-248v-1748zM376 548h250v250h-250v-250zM376 1048h250v250h-250v-250zM500 1672q0 -52 37 -88t89 -36t88 36t36 88v250q0 52 -36 88t-88 36t-89 -36t-37 -88v-250zM876 548h248v250h-248v-250zM876 1048h248v250h-248v-250z M1250 1672q0 -52 36 -88t88 -36t89 36t37 88v250q0 52 -37 88t-89 36t-88 -36t-36 -88v-250zM1374 548l250 250h-250v-250zM1374 1048h250v250h-250v-250z" />
<glyph unicode="8" d="M0 1550q0 -130 42 -229t114 -156t159 -86t185 -29h56q-56 -112 -56 -250v-250q0 -206 146 -352t352 -146q0 102 74 175t176 73h250q98 0 184 29t158 86t115 156t43 229q0 132 -42 232t-115 157t-159 84t-184 27v250q0 124 -42 222t-114 157t-159 90t-185 31h-498 q-100 0 -186 -28t-158 -84t-114 -156t-42 -232zM250 1550q0 34 1 56t14 63t38 66t75 45t122 20h498q42 0 80 -10t79 -34t66 -77t25 -129v-250q0 -126 -100 -200q-70 92 -175 146t-225 54h-248q-250 0 -250 250zM748 550v250q0 148 114 220q62 -32 99 -90t37 -130 q136 0 250 68t180 182h70q72 0 122 -20t74 -45t37 -66t15 -63t2 -56q0 -30 -2 -51t-15 -62t-37 -67t-75 -48t-121 -22h-250q-120 0 -225 -53t-175 -145q-100 74 -100 198z" />
<glyph unicode="9" d="M2 1048q0 -204 79 -389t212 -318t318 -212t389 -79t389 79t318 212t212 318t79 389t-79 389t-212 318t-318 212t-389 79t-389 -79t-318 -212t-212 -318t-79 -389zM250 1048q0 204 101 376t273 273t376 101t376 -101t273 -273t101 -376t-101 -376t-273 -273t-376 -101 t-376 101t-273 273t-101 376zM874 1048q0 -54 44 -92l244 -246l176 178l-214 212v448h-250v-500z" />
<glyph unicode="A" d="M254 54h498v1988h-498v-1988zM1248 54h498v1988h-498v-1988z" />
<glyph unicode="B" d="M250 46l1500 1002l-1500 1002v-2004z" />
<glyph unicode="C" d="M4 52h1494v498h498v1494h-1494v-498h-498v-1494zM252 300v748h250v-498h748v-250h-998zM750 798v748h998v-748h-998z" />
<glyph unicode="D" d="M4 176q0 -52 36 -88t88 -36t88 36l254 254q156 -104 342 -104q258 0 442 182l374 374q158 158 179 381q3 33 3 65q0 185 -104 338l254 254q36 36 36 88t-36 88t-88 36t-88 -36l-254 -254q-156 104 -344 104q-258 0 -440 -182l-374 -374q-158 -158 -179 -381 q-3 -33 -3 -65q0 -185 104 -338l-254 -254q-36 -36 -36 -88zM440 862q0 154 108 264l374 374q110 108 264 108q82 0 162 -36l-190 -190q-38 -38 -38 -89t37 -88t88 -37t89 38l190 190q36 -78 36 -162q0 -154 -108 -264l-374 -374q-110 -108 -266 -108q-80 0 -160 36l186 186 q38 38 38 89t-37 88t-88 37t-89 -38l-186 -186q-36 78 -36 162z" />
<glyph unicode="E" d="M500 46h1000v252h-124q-52 0 -89 36t-37 88v876h-750v-250h124q52 0 89 -37t37 -89v-500q0 -52 -37 -88t-89 -36h-124v-252zM750 1799q0 -103 73 -177t177 -74t177 74t73 177t-73 177t-177 74t-177 -74t-73 -177z" />
<glyph unicode="F" d="M4 52h248h1496l248 248h-1744v1744l-248 -248v-1496v-248zM502 550h1494v498l-498 498l-498 -498l-250 250l-248 -250v-498z" />
<glyph unicode="G" d="M2 174q0 -52 36 -88t88 -36h1748q52 0 88 36t36 88v1124h-1996v-1124zM2 1548h1996v250h-1248v248h-748v-498z" />
<glyph unicode="H" d="M2 50h498l-160 160l410 412l-176 176l-412 -410l-160 160v-498zM2 1548l160 160l412 -410l176 176l-410 412l160 160h-498v-498zM1250 622l410 -412l-160 -160h498v498l-160 -160l-412 410zM1250 1474l176 -176l412 410l160 -160v498h-498l160 -160z" />
<glyph unicode="I" d="M2 226l176 -176l410 410l162 -162v500h-500l162 -162zM2 1870l408 -408l-160 -164l498 2l2 498l-164 -160l-408 408zM1250 298l162 162l410 -410l176 176l-410 410l162 162h-500v-500zM1250 1298h502l-162 162l408 410l-176 176l-410 -410l-162 164v-502z" />
<glyph unicode="J" d="M4 1172q0 -52 36 -88t88 -36q44 0 82 32l298 -100q-6 -38 -6 -56q0 -156 109 -265t265 -109q154 0 262 108l378 -270q-18 -46 -18 -88q0 -102 73 -175t176 -73t176 73t73 176t-73 176t-175 73q-86 0 -158 -60l-380 270q40 80 40 164q0 118 -70 216l444 444 q64 -38 124 -38q102 0 175 73t73 176t-73 176t-176 73t-176 -73t-73 -175q0 -60 38 -124l-444 -444q-98 70 -216 70q-106 0 -193 -55t-135 -145l-300 100q-10 44 -43 72t-77 28q-52 0 -88 -37t-36 -89z" />
<glyph unicode="K" d="M0 1048h750v250h-314l340 340q106 106 255 144q74 19 149 19l149 -19q149 -38 253 -144q168 -166 168 -403t-168 -403l-188 -188l176 -176l190 188q116 116 178 265t62 314t-62 314t-178 265q-114 114 -266 173t-315 59t-314 -59t-265 -173l-350 -350v334h-250v-750z M976 226l176 -176l178 176l-178 176z" />
<glyph unicode="L" d="M-2 298h752v750h-500q0 208 146 354t354 146v250q-204 0 -377 -100t-274 -273t-101 -377v-750zM1250 298h752v750h-502q0 208 147 354t355 146v250q-204 0 -377 -100t-274 -273t-101 -377v-750z" />
<glyph unicode="M" d="M172 416q0 -14 15 -28t27 -14h84v-84q0 -12 14 -27t26 -15h1336q12 0 27 15t15 27v84h84q12 0 27 14t15 28v584q0 12 -15 27t-27 15h-126v668q0 70 -40 118t-126 48h-1002q-88 0 -128 -48t-40 -118v-668h-124q-12 0 -27 -15t-15 -27v-584zM440 414v168h1128v-168h-1128z M506 1042v626q0 4 1 11t11 19t30 12h918q18 0 29 -12t12 -19t1 -11v-626h-1002z" />
<glyph unicode="a" d="M0 794h298q14 -40 28 -72l-208 -210l354 -354l210 210q12 -6 39 -15l33 -11v-300h502v300q6 2 32 11t38 15l210 -210l356 354l-210 210q14 30 28 72h298v502h-298q-14 42 -28 72l210 210l-356 354l-210 -210q-12 6 -38 15t-32 11v300h-502v-300l-33 -11q-27 -9 -39 -15 l-210 210l-354 -354l208 -210q-14 -32 -28 -72h-298v-502zM754 1040q0 104 73 177t177 73t178 -73t74 -177t-74 -178t-178 -74t-177 74t-73 178z" />
<glyph unicode="b" d="M0 674q0 -208 147 -354t353 -146q0 102 73 176t177 74h500q204 0 376 100t273 273t101 376t-101 376t-273 273t-376 100h-624q-260 0 -443 -183t-183 -441v-624zM250 674v624q0 154 110 264t266 110h624q206 0 353 -146t147 -353t-147 -353t-353 -146h-500 q-120 0 -225 -54t-175 -146q-100 74 -100 200z" />
<glyph unicode="c" d="M126 424l374 -374l376 374h-248q10 140 106 238l708 702q182 182 182 440v242h-250v-242q0 -154 -108 -264l-708 -702q-168 -170 -180 -414h-252zM1124 424l376 -374l374 374h-252q-12 244 -182 414l-138 138l-178 -176l140 -138q98 -98 108 -238h-248z" />
<glyph unicode="d" d="M8 1320l992 -1140l992 1140v44q0 228 -162 390t-388 162q-136 0 -250 -64t-192 -174q-78 110 -192 174t-248 64q-228 0 -390 -162t-162 -390v-44z" />
<glyph unicode="e" d="M-2 1048h252v-1002h1500v1002h252l-1002 1002zM500 298v896l500 354l500 -354v-896h-374v374h-252v-374h-374z" />
<glyph unicode="f" d="M2 50h748v248h250v250h250v250l12 12q60 -12 112 -12q260 0 442 183t182 442t-182 441t-442 182h-8q-256 -2 -436 -184t-180 -440q0 -52 12 -112l-760 -762v-498zM250 298v148l688 686l94 94l-24 128q-8 40 -8 68q0 156 110 266t265 110t265 -110t110 -265t-110 -265 t-266 -110q-28 0 -68 8l-128 24l-94 -94l-10 -12l-74 -72v-104h-250v-250h-250v-250h-250zM1250 1422q0 -52 37 -88t88 -36t88 36t37 88t-37 89t-88 37t-88 -37t-37 -89z" />
<glyph unicode="g" d="M250 424q0 -156 110 -265t266 -109h748q156 0 266 109t110 265v998q0 258 -183 441t-441 183h-8q-256 -2 -437 -185t-181 -439v-124h-250v-874zM500 424v624h1000v-624q0 -52 -37 -89t-89 -37h-748q-52 0 -89 37t-37 89zM750 1298v124q0 156 110 266t265 110t265 -110 t110 -266v-124h-750zM876 674q0 -52 36 -89t88 -37t89 37t37 89t-37 88t-89 36t-88 -36t-36 -88z" />
<glyph unicode="h" d="M250 424q0 -156 110 -266t264 -110h752q154 0 264 110t110 266v998q0 260 -183 443t-441 183h-8q-256 -4 -437 -187t-181 -439h250q0 156 110 266t265 110t265 -110t110 -266v-124h-1250v-874zM500 424v624h1000v-624q0 -52 -37 -89t-87 -37h-752q-50 0 -87 37t-37 89z M876 673q0 -51 36 -88t88 -37t88 37t36 88t-36 88t-88 37t-88 -37t-36 -88z" />
<glyph unicode="i" d="M2 1058h748v250h-294l334 332q158 160 396 160t396 -160l178 178q-114 112 -263 170t-310 58t-311 -58t-262 -170l-364 -362v352h-248v-750zM240 286q116 -114 264 -175t310 -61t310 61t262 175l364 362v-352h248v750h-748v-250h294l-334 -334q-158 -158 -396 -158 t-396 158z" />
<glyph unicode="j" d="M-2 458l412 -412l572 574q136 -56 276 -56q202 0 373 100t271 271t100 372t-100 372t-271 271t-372 100t-372 -100t-271 -271t-100 -373q0 -140 54 -276zM352 458l159 159l197 197q26 -28 58 -58l-204 -204l-152 -152q-14 16 -30 31t-28 27zM766 1307q0 203 145 348 t348 145t347 -145t144 -348t-144 -348t-347 -145t-348 145t-145 348z" />
<glyph unicode="k" d="M4 300h1992v1496h-1992v-1496zM252 550v840l484 -484q110 -110 264 -110t264 110l484 484v-840h-1496zM448 1546h1104l-464 -464q-36 -36 -88 -36t-88 36z" />
<glyph unicode="l" d="M2 1048l374 -374v250h374v248h-374v250zM626 424l374 -374l374 374h-250v374h-248v-374h-250zM626 1672h250v-374h248v374h250l-374 374zM1250 924h374v-250l374 374l-374 374v-250h-374v-248z" />
<glyph unicode="m" d="M4 52h704l1142 1142q146 146 146 352t-146 352q-144 146 -352 146q-206 0 -352 -146l-1140 -1140zM254 550v104l1068 1068l352 -352l-1070 -1070h-102v250h-248z" />
<glyph unicode="n" d="M378 1422q0 -258 182 -440q0 2 45 -48t110 -139t130 -200t110 -258t45 -285q0 138 45 286t110 258t130 200t111 138l44 48q182 182 182 440t-182 440t-440 182t-440 -182t-182 -440zM626 1421q0 155 110 265t264 110t264 -110t110 -265t-108 -261q-144 -146 -266 -340 q-128 202 -264 338q-110 108 -110 263zM876 1422q0 -52 36 -88t88 -36t88 36t36 88t-36 88t-88 36t-88 -36t-36 -88z" />
<glyph unicode="o" d="M4 798h746v-746h500v746h746v500h-746v746h-500v-746h-746v-500z" />
<glyph unicode="p" d="M146 906q0 -232 114 -429t311 -312t429 -115t429 115t311 312t114 429h-284q0 -236 -167 -403t-403 -167t-403 167t-167 403t167 403t403 167l168 -2l-82 -84l200 -200l428 428l-428 428l-200 -202l84 -84h-170q-232 0 -429 -114t-311 -311t-114 -429z" />
<glyph unicode="q" d="M2 299q0 -103 73 -176t176 -73t176 73t73 176t-73 176t-176 73t-176 -73t-73 -176zM376 1298q176 0 338 -70t279 -187t187 -279t70 -338h250q0 228 -89 436t-240 359t-359 240t-436 89v-250zM376 1798q278 0 533 -109t439 -293t293 -439t109 -533h248q0 330 -128 630 t-346 518t-518 346t-630 128v-248zM378 798q154 0 264 -110t110 -264h250q0 258 -183 441t-441 183v-250z" />
<glyph unicode="r" d="M4 1218l1166 -1166v826h826l-1166 1166h-826v-826zM222 1589q0 99 69 168t167 69t168 -69t70 -168t-70 -168t-168 -69t-167 69t-69 168z" />
<glyph unicode="s" d="M6 1546h248v-1120q0 -154 109 -263t265 -109h744q156 0 265 109t109 263v1120h248v248h-248h-248q0 104 -73 176t-177 72h-496q-104 0 -177 -72t-73 -176h-248h-248v-248zM502 426v1120h996v-1120q0 -50 -37 -87t-89 -37h-744q-52 0 -89 37t-37 87zM628 675q0 -51 36 -88 t87 -37t88 37t37 88t-37 88t-88 37t-87 -37t-36 -88zM628 1172q0 -52 36 -88t87 -36t88 36t37 88t-37 88t-88 36t-87 -36t-36 -88zM1124 675q0 -51 37 -88t88 -37t87 37t36 88t-36 88t-87 37t-88 -37t-37 -88zM1124 1172q0 -52 37 -88t88 -36t87 36t36 88t-36 88t-87 36 t-88 -36t-37 -88z" />
<glyph unicode="t" d="M2 1298l616 -474l-242 -774l624 478l624 -478l-240 772l614 476h-748l-250 748l-250 -748h-748z" />
<glyph unicode="u" d="M250 298q0 -102 73 -175t177 -73h1000q104 0 177 73t73 175q0 204 -101 377t-273 273t-376 100t-376 -100t-273 -273t-101 -377zM626 1673q0 -155 109 -265t265 -110t265 110t109 265t-109 264t-265 109t-265 -109t-109 -264z" />
<glyph unicode="v" d="M2 798h1996v500h-1996v-500z" />
<glyph unicode="w" d="M146 1760h854h854v284h-1708v-284zM430 1190h286v-1138h568v1138h286l-570 570z" />
<glyph unicode="x" d="M22 682l488 -368v246h1468v244h-1468v244zM22 1292h1466v-244l490 366l-490 368v-246h-1466v-244z" />
<glyph unicode="y" d="M2 50h1996v1996h-1996v-1996z" />
<glyph unicode="z" d="M-2 46h2004v2004h-246l246 -252l-252 -250h-248l248 250l-244 252h-350l250 -250l-256 -252h-294l254 250l-252 252h-354l250 -250l-256 -252h-250l254 250l-252 252h-252v-2004zM250 300v250h1500v-250h-1500zM250 798v250h1500v-250h-1500z" />
<glyph unicode="&#xaa;" d="M0 794h298q14 -40 28 -72l-208 -210l354 -354l210 210q12 -6 39 -15l33 -11v-300h502v300q6 2 32 11t38 15l210 -210l356 354l-210 210q14 30 28 72h298v502h-298q-14 42 -28 72l210 210l-356 354l-210 -210q-12 6 -38 15t-32 11v300h-502v-300l-33 -11q-27 -9 -39 -15 l-210 210l-354 -354l208 -210q-14 -32 -28 -72h-298v-502zM754 1040q0 104 73 177t177 73t178 -73t74 -177t-74 -178t-178 -74t-177 74t-73 178z" />
<glyph unicode="&#xb2;" d="M-2 1048l1000 -1002l356 356l-396 394h1044v502h-1044l396 396l-356 356z" />
<glyph unicode="&#xb3;" d="M-2 796v502h1044l-396 396l356 356l1000 -1002l-1000 -1002l-356 356l396 394h-1044z" />
<glyph unicode="&#xb9;" d="M2 1046l354 354l394 -394v1040h500v-1040l394 396l354 -356l-998 -996z" />
<glyph unicode="&#xba;" d="M4 798h746v-746h500v746h746v500h-746v746h-500v-746h-746v-500z" />
<glyph unicode="&#x153;" horiz-adv-x="4096" d="M2046 1048h252v-1002h1500v1002h252l-1002 1002zM2548 298v896l500 354l500 -354v-896h-374v374h-252v-374h-374zM4 798h746v-746h500v746h746v500h-746v746h-500v-746h-746v-500z" />
<glyph unicode="&#x2000;" horiz-adv-x="1024" />
<glyph unicode="&#x2001;" horiz-adv-x="2050" />
<glyph unicode="&#x2002;" horiz-adv-x="1024" />
<glyph unicode="&#x2003;" horiz-adv-x="2050" />
<glyph unicode="&#x2004;" horiz-adv-x="682" />
<glyph unicode="&#x2005;" horiz-adv-x="512" />
<glyph unicode="&#x2006;" horiz-adv-x="340" />
<glyph unicode="&#x2007;" horiz-adv-x="340" />
<glyph unicode="&#x2008;" horiz-adv-x="256" />
<glyph unicode="&#x2009;" horiz-adv-x="410" />
<glyph unicode="&#x200a;" horiz-adv-x="112" />
<glyph unicode="&#x2013;" horiz-adv-x="1024" d="M204 512v204h616v-204h-616z" />
<glyph unicode="&#x2014;" d="M204 512v204h1640v-204h-1640z" />
<glyph unicode="&#x202f;" horiz-adv-x="410" />
<glyph unicode="&#x205f;" horiz-adv-x="512" />
<glyph unicode="&#xe000;" horiz-adv-x="1780" d="M0 1780h1780v-1780h-1780v1780z" />
<glyph unicode="&#xfb01;" horiz-adv-x="4096" d="M2050 1058h748v250h-294l334 332q158 160 396 160t396 -160l178 178q-114 112 -263 170t-310 58t-311 -58t-262 -170l-364 -362v352h-248v-750zM2288 286q116 -114 264 -175t310 -61t310 61t262 175l364 362v-352h248v750h-748v-250h294l-334 -334q-158 -158 -396 -158 t-396 158zM2 50h748v248h250v250h250v250l12 12q60 -12 112 -12q260 0 442 183t182 442t-182 441t-442 182h-8q-256 -2 -436 -184t-180 -440q0 -52 12 -112l-760 -762v-498zM250 298v148l688 686l94 94l-24 128q-8 40 -8 68q0 156 110 266t265 110t265 -110t110 -265 t-110 -265t-266 -110q-28 0 -68 8l-128 24l-94 -94l-10 -12l-74 -72v-104h-250v-250h-250v-250h-250zM1250 1422q0 -52 37 -88t88 -36t88 36t37 88t-37 89t-88 37t-88 -37t-37 -89z" />
<glyph unicode="&#xfb02;" horiz-adv-x="4096" d="M2050 1048l374 -374v250h374v248h-374v250zM2674 424l374 -374l374 374h-250v374h-248v-374h-250zM2674 1672h250v-374h248v374h250l-374 374zM3298 924h374v-250l374 374l-374 374v-250h-374v-248zM2 50h748v248h250v250h250v250l12 12q60 -12 112 -12q260 0 442 183 t182 442t-182 441t-442 182h-8q-256 -2 -436 -184t-180 -440q0 -52 12 -112l-760 -762v-498zM250 298v148l688 686l94 94l-24 128q-8 40 -8 68q0 156 110 266t265 110t265 -110t110 -265t-110 -265t-266 -110q-28 0 -68 8l-128 24l-94 -94l-10 -12l-74 -72v-104h-250v-250 h-250v-250h-250zM1250 1422q0 -52 37 -88t88 -36t88 36t37 88t-37 89t-88 37t-88 -37t-37 -89z" />
<glyph unicode="&#xfb03;" horiz-adv-x="6144" d="M4098 1058h748v250h-294l334 332q158 160 396 160t396 -160l178 178q-114 112 -263 170t-310 58t-311 -58t-262 -170l-364 -362v352h-248v-750zM4336 286q116 -114 264 -175t310 -61t310 61t262 175l364 362v-352h248v750h-748v-250h294l-334 -334q-158 -158 -396 -158 t-396 158zM2050 50h748v248h250v250h250v250l12 12q60 -12 112 -12q260 0 442 183t182 442t-182 441t-442 182h-8q-256 -2 -436 -184t-180 -440q0 -52 12 -112l-760 -762v-498zM2298 298v148l688 686l94 94l-24 128q-8 40 -8 68q0 156 110 266t265 110t265 -110t110 -265 t-110 -265t-266 -110q-28 0 -68 8l-128 24l-94 -94l-10 -12l-74 -72v-104h-250v-250h-250v-250h-250zM3298 1422q0 -52 37 -88t88 -36t88 36t37 88t-37 89t-88 37t-88 -37t-37 -89zM2 50h748v248h250v250h250v250l12 12q60 -12 112 -12q260 0 442 183t182 442t-182 441 t-442 182h-8q-256 -2 -436 -184t-180 -440q0 -52 12 -112l-760 -762v-498zM250 298v148l688 686l94 94l-24 128q-8 40 -8 68q0 156 110 266t265 110t265 -110t110 -265t-110 -265t-266 -110q-28 0 -68 8l-128 24l-94 -94l-10 -12l-74 -72v-104h-250v-250h-250v-250h-250z M1250 1422q0 -52 37 -88t88 -36t88 36t37 88t-37 89t-88 37t-88 -37t-37 -89z" />
<glyph unicode="&#xfb04;" horiz-adv-x="6144" d="M4098 1048l374 -374v250h374v248h-374v250zM4722 424l374 -374l374 374h-250v374h-248v-374h-250zM4722 1672h250v-374h248v374h250l-374 374zM5346 924h374v-250l374 374l-374 374v-250h-374v-248zM2050 50h748v248h250v250h250v250l12 12q60 -12 112 -12q260 0 442 183 t182 442t-182 441t-442 182h-8q-256 -2 -436 -184t-180 -440q0 -52 12 -112l-760 -762v-498zM2298 298v148l688 686l94 94l-24 128q-8 40 -8 68q0 156 110 266t265 110t265 -110t110 -265t-110 -265t-266 -110q-28 0 -68 8l-128 24l-94 -94l-10 -12l-74 -72v-104h-250v-250 h-250v-250h-250zM3298 1422q0 -52 37 -88t88 -36t88 36t37 88t-37 89t-88 37t-88 -37t-37 -89zM2 50h748v248h250v250h250v250l12 12q60 -12 112 -12q260 0 442 183t182 442t-182 441t-442 182h-8q-256 -2 -436 -184t-180 -440q0 -52 12 -112l-760 -762v-498zM250 298v148 l688 686l94 94l-24 128q-8 40 -8 68q0 156 110 266t265 110t265 -110t110 -265t-110 -265t-266 -110q-28 0 -68 8l-128 24l-94 -94l-10 -12l-74 -72v-104h-250v-250h-250v-250h-250zM1250 1422q0 -52 37 -88t88 -36t88 36t37 88t-37 89t-88 37t-88 -37t-37 -89z" />
</font>
</defs>
</svg>
